<svg width="149" height="41" viewBox="0 0 149 41" fill="none" xmlns="http://www.w3.org/2000/svg">
<g clip-path="url(#clip0_3115_1714)">
<path d="M27.9004 17.9062H26.7327C24.0765 17.9062 21.4761 18.756 19.3125 20.311C21.5715 22.3864 23.3917 24.9474 24.6138 27.8307C26.714 25.4433 27.9004 22.3206 27.9004 19.0952L27.9004 17.9062Z" fill="#DF2A19"/>
<path d="M12.5628 29.1705C12.2587 28.8609 12.2587 28.3591 12.5628 28.0495C12.8668 27.74 13.3596 27.74 13.6637 28.0495L24.7903 39.3784V36.3814C24.7903 25.3219 15.9534 16.3242 5.09129 16.3242H1.04688V20.4422C1.04688 31.5018 9.88382 40.4994 20.7459 40.4994H23.6894L12.5628 29.1705Z" fill="#DF2A19"/>
<path d="M38.7542 16.93C38.4465 15.8374 38.0031 14.7751 37.4362 13.7726C37.2662 13.472 37.308 13.0937 37.5392 12.8391L40.43 9.65466C40.6321 9.43197 40.614 9.08335 40.3898 8.88367L36.0948 5.05721C35.8851 4.87033 35.5689 4.88121 35.372 5.0821L32.5937 7.91697C32.3476 8.16804 31.9691 8.21985 31.6636 8.04946C30.6584 7.4889 29.5874 7.04844 28.4802 6.74017C28.1395 6.64529 27.9012 6.33359 27.9012 5.97394V1.80037C27.9012 1.50289 27.6643 1.26172 27.3721 1.26172H21.4239C21.1317 1.26172 20.8949 1.50289 20.8949 1.80037V5.69649C20.8949 6.05279 20.6607 6.36215 20.3244 6.46034C19.2533 6.773 18.2121 7.22335 17.2292 7.79895C16.9193 7.98041 16.5291 7.92999 16.279 7.66997L13.4785 4.75889C13.2725 4.54481 12.9346 4.54303 12.7265 4.75492L8.70183 8.85269C8.50243 9.0557 8.49448 9.38228 8.68374 9.59511L11.4997 12.7618C11.7221 13.012 11.7647 13.3781 11.6057 13.6742C11.4238 14.0128 11.074 14.7533 10.7336 15.5127C12.0243 15.8751 13.2661 16.3586 14.4465 16.9505C16.1818 12.9843 20.0757 10.377 24.398 10.377C30.4075 10.377 35.2967 15.355 35.2967 21.4737C35.2967 27.0049 31.2761 31.6618 25.9922 32.45C26.2227 33.7246 26.3442 35.0375 26.3442 36.3788V40.4968H27.3721C27.6643 40.4968 27.9012 40.2556 27.9012 39.9581V36.4584C27.9012 36.1021 28.1353 35.7927 28.4716 35.6946C29.5426 35.382 30.5839 34.9316 31.5669 34.356C31.8768 34.1745 32.2669 34.225 32.5171 34.485L35.2873 37.3645C35.4979 37.5835 35.8453 37.5796 36.0512 37.356L40.0898 32.9698C40.2852 32.7576 40.2798 32.4257 40.0775 32.2201L37.3236 29.4221C37.0795 29.1742 37.0229 28.7918 37.1887 28.484C37.6934 27.5473 38.1025 26.4809 38.4394 25.2233C38.5312 24.8804 38.8399 24.6442 39.1891 24.6442H43.3309C43.6231 24.6442 43.8599 24.4031 43.8599 24.1056V18.0492C43.8599 17.7517 43.6231 17.5106 43.3309 17.5106H39.5043C39.1545 17.5106 38.8506 17.2724 38.7542 16.93Z" fill="#B91202"/>
</g>
<path d="M61.92 29.5H59.4C58.96 29.5 58.74 29.29 58.74 28.87V13.84C58.74 13.62 58.63 13.51 58.41 13.51H54.99C54.57 13.51 54.36 13.3 54.36 12.88V10.84C54.36 10.42 54.57 10.21 54.99 10.21H66.33C66.75 10.21 66.96 10.42 66.96 10.84V12.88C66.96 13.3 66.75 13.51 66.33 13.51H62.91C62.67 13.51 62.55 13.62 62.55 13.84V28.87C62.55 29.29 62.34 29.5 61.92 29.5ZM80.2308 29.5H73.6008C72.0208 29.5 70.8008 29.08 69.9408 28.24C69.0808 27.4 68.6508 26.19 68.6508 24.61V19.09C68.6508 17.51 69.0808 16.3 69.9408 15.46C70.8008 14.62 72.0208 14.2 73.6008 14.2H75.9708C77.5508 14.2 78.7708 14.62 79.6308 15.46C80.4908 16.3 80.9208 17.51 80.9208 19.09V22.9C80.9208 23.32 80.7108 23.53 80.2908 23.53H72.7608C72.5208 23.53 72.4008 23.64 72.4008 23.86V24.52C72.4008 25.14 72.5308 25.59 72.7908 25.87C73.0708 26.13 73.5308 26.26 74.1708 26.26H80.2308C80.6508 26.26 80.8608 26.48 80.8608 26.92V28.9C80.8608 29.12 80.8108 29.28 80.7108 29.38C80.6308 29.46 80.4708 29.5 80.2308 29.5ZM72.7608 20.98H76.8408C77.0608 20.98 77.1708 20.87 77.1708 20.65V19.21C77.1708 18.57 77.0408 18.12 76.7808 17.86C76.5208 17.6 76.0708 17.47 75.4308 17.47H74.1708C73.5308 17.47 73.0808 17.6 72.8208 17.86C72.5608 18.12 72.4308 18.57 72.4308 19.21V20.65C72.4308 20.87 72.5408 20.98 72.7608 20.98ZM93.525 26.83V28.9C93.525 29.12 93.475 29.28 93.375 29.38C93.295 29.46 93.135 29.5 92.895 29.5H88.425C86.845 29.5 85.625 29.08 84.765 28.24C83.905 27.4 83.475 26.19 83.475 24.61V19.09C83.475 17.51 83.905 16.3 84.765 15.46C85.625 14.62 86.845 14.2 88.425 14.2H92.895C93.315 14.2 93.525 14.41 93.525 14.83V16.9C93.525 17.12 93.475 17.28 93.375 17.38C93.295 17.46 93.135 17.5 92.895 17.5H89.025C88.405 17.5 87.955 17.64 87.675 17.92C87.415 18.18 87.285 18.63 87.285 19.27V24.43C87.285 25.07 87.415 25.53 87.675 25.81C87.955 26.07 88.405 26.2 89.025 26.2H92.895C93.315 26.2 93.525 26.41 93.525 26.83ZM99.289 29.5H96.739C96.319 29.5 96.109 29.29 96.109 28.87V9.04C96.109 8.62 96.319 8.41 96.739 8.41H99.289C99.709 8.41 99.919 8.62 99.919 9.04V15.82H100.039C100.479 14.74 101.459 14.2 102.979 14.2H103.939C107.079 14.2 108.649 15.83 108.649 19.09V28.87C108.649 29.29 108.429 29.5 107.989 29.5H105.469C105.049 29.5 104.839 29.29 104.839 28.87V19.27C104.839 18.63 104.699 18.18 104.419 17.92C104.159 17.64 103.709 17.5 103.069 17.5H101.989C100.609 17.5 99.919 18.26 99.919 19.78V28.87C99.919 29.29 99.709 29.5 99.289 29.5ZM115.142 29.5H112.592C112.172 29.5 111.962 29.29 111.962 28.87V9.04C111.962 8.62 112.172 8.41 112.592 8.41H115.142C115.562 8.41 115.772 8.62 115.772 9.04V28.87C115.772 29.29 115.562 29.5 115.142 29.5ZM124.594 29.5H123.874C122.294 29.5 121.074 29.08 120.214 28.24C119.354 27.4 118.924 26.19 118.924 24.61V19.09C118.924 17.51 119.354 16.3 120.214 15.46C121.074 14.62 122.294 14.2 123.874 14.2H130.804C131.244 14.2 131.464 14.41 131.464 14.83V28.87C131.464 29.29 131.244 29.5 130.804 29.5H128.284C127.864 29.5 127.654 29.29 127.654 28.87V27.88H127.534C127.314 28.42 126.924 28.83 126.364 29.11C125.804 29.37 125.214 29.5 124.594 29.5ZM127.654 23.92V17.83C127.654 17.61 127.534 17.5 127.294 17.5H124.474C123.834 17.5 123.384 17.64 123.124 17.92C122.864 18.18 122.734 18.63 122.734 19.27V24.43C122.734 25.07 122.864 25.53 123.124 25.81C123.384 26.07 123.834 26.2 124.474 26.2H125.584C126.964 26.2 127.654 25.44 127.654 23.92ZM138.892 26.2H141.952C142.592 26.2 143.042 26.07 143.302 25.81C143.582 25.53 143.722 25.07 143.722 24.43V19.21C143.722 18.57 143.582 18.12 143.302 17.86C143.042 17.58 142.592 17.44 141.952 17.44H140.632C139.252 17.44 138.562 18.2 138.562 19.72V25.87C138.562 26.09 138.672 26.2 138.892 26.2ZM134.752 28.87V9.04C134.752 8.62 134.962 8.41 135.382 8.41H137.932C138.352 8.41 138.562 8.62 138.562 9.04V15.79H138.682C138.902 15.25 139.292 14.84 139.852 14.56C140.412 14.28 141.002 14.14 141.622 14.14H142.582C144.162 14.14 145.382 14.56 146.242 15.4C147.102 16.24 147.532 17.45 147.532 19.03V24.61C147.532 26.19 147.102 27.4 146.242 28.24C145.382 29.08 144.162 29.5 142.582 29.5H135.382C134.962 29.5 134.752 29.29 134.752 28.87Z" fill="#141414"/>
<defs>
<clipPath id="clip0_3115_1714">
<rect width="44" height="40" fill="white" transform="translate(0 0.5)"/>
</clipPath>
</defs>
</svg>
